# xmcd
#
# Track frame offsets:
#	150
#	19060
#	37200
#	53305
#	68910
#	82730
#	101660
#	119810
#	135875
#	151530
#
# Disc length: 2203 seconds
#
# Revision: 1
# Processed by: cddbd v1.5.1PL2 Copyright (c) Steve Scherf et al.
# Submitted via: audiograbber 1.83.01
#
DISCID=7208990a
DTITLE=Various Artist - Priddis Karaoke Country Hits '99 v.5  #1343G
DYEAR=1900
DGENRE=karaoke - country
TTITLE0=When I Said I Do (Clint Black)
TTITLE1=You Had Me From Hello (Kenny Chesney)
TTITLE2=I'm Already Taken (Steve Wariner)
TTITLE3=Big Deal (LeAnn Rimes)
TTITLE4=The Yodelin' Blues (The Wilkinsons)
TTITLE5=When I Said I Do (Clint Black) Vocal Reference
TTITLE6=You Had Me From Hello (Kenny Chesney) Vocal Reference
TTITLE7=I'm Already Taken (Steve Wariner) Vocal Reference
TTITLE8=Big Deal (LeAnn Rimes) Vocal Reference
TTITLE9=The Yodelin' Blues (The Wilkinsons) Vocal Reference
EXTD=
EXTT0=
EXTT1=
EXTT2=
EXTT3=
EXTT4=
EXTT5=
EXTT6=
EXTT7=
EXTT8=
EXTT9=
PLAYORDER=
